<?xml version="1.0" encoding="UTF-8"?>
<svg width="24" height="24" viewBox="0 0 24 24" fill="none" xmlns="http://www.w3.org/2000/svg">
  <path d="M8 12H8.01M12 12H12.01M16 12H16.01M21 12C21 16.418 16.97 20 12 20C10.5286 20 9.14629 19.6376 7.94359 19C7.60383 18.8301 7.43395 18.7452 7.35179 18.7092C7.26963 18.6732 7.21183 18.6554 7.09693 18.6385C6.98203 18.6216 6.86138 18.6332 6.62008 18.6562L3.08627 19.0451C2.79435 19.0739 2.64839 19.0884 2.53894 19.0407C2.44311 18.9988 2.36772 18.9234 2.32583 18.8276C2.27811 18.7181 2.29262 18.5722 2.32163 18.2802L2.71901 14.7636C2.74202 14.5223 2.75353 14.4017 2.73661 14.2868C2.71969 14.1719 2.70184 14.1141 2.66586 14.0319C2.63236 13.9555 2.54874 13.7857 2.38151 13.4461C2.13318 12.9726 2 12.4566 2 12C2 7.582 6.03 4 11 4C15.502 4 19.225 7.012 19.91 11" stroke="currentColor" stroke-width="2" stroke-linecap="round" stroke-linejoin="round"/>
</svg> 